<?xml version="1.0" encoding="UTF-8"?>
<svg version="1.1" xmlns="http://www.w3.org/2000/svg" width="3559" height="2047">
<path d="M0 0 C16.30089589 7.76243726 30.40459761 22.64748027 43.5 34.8125 C44.46969727 35.70932495 44.46969727 35.70932495 45.45898438 36.62426758 C49.35593987 40.28447798 52.9374561 44.1105488 56.41894531 48.16723633 C58.42102861 50.48805772 60.52382884 52.70639776 62.625 54.9375 C69.26394511 62.23028061 75.13710795 70.07865203 81 78 C81.50289551 78.67272949 82.00579102 79.34545898 82.52392578 80.03857422 C101.52367783 105.5700787 116.18104427 134.12902518 127 164 C127.31952637 164.88010742 127.63905273 165.76021484 127.96826172 166.66699219 C136.40355314 190.20467416 141.47031233 214.27455548 145 239 C145.13422363 239.93392578 145.26844727 240.86785156 145.40673828 241.83007812 C152.73105331 295.85076448 144.05433673 352.36097581 125.20043945 403.10327148 C124.57721802 404.78271851 124.57721802 404.78271851 123.94140625 406.49609375 C123.56701416 407.48794678 123.19262207 408.4797998 122.80688477 409.50170898 C121.8463288 412.03823931 121.8463288 412.03823931 122 415 C131.59047628 418.4454674 141.18783538 421.46481973 151.125 423.75 C151.96885254 423.94811279 152.81270508 424.14622559 153.68212891 424.3503418 C168.21738182 427.57565242 182.60527452 428.40837767 197.4375 428.375 C198.31062836 428.37478851 199.18375671 428.37457703 200.08334351 428.37435913 C214.69736291 428.33918319 228.71300616 427.25755151 243 424 C243.8470752 423.81276367 244.69415039 423.62552734 245.56689453 423.43261719 C279.60206648 415.73331476 310.66109798 399.77794928 337 377 C337.94488281 376.1853125 338.88976563 375.370625 339.86328125 374.53125 C342.2830978 372.39368266 344.65174887 370.21578568 347 368 C347.80566406 367.2471875 348.61132812 366.494375 349.44140625 365.71875 C356.38270466 359.02729488 362.23474952 351.6966197 368 344 C368.44939941 343.40606445 368.89879883 342.81212891 369.36181641 342.20019531 C370.69172968 340.43437943 372.00493293 338.65740986 373.3125 336.875 C374.07175781 335.84117187 374.83101562 334.80734375 375.61328125 333.7421875 C382.49189339 323.42281688 386.44240313 311.84476263 390.375 300.1875 C390.65691193 299.35807892 390.93882385 298.52865784 391.22927856 297.67410278 C410.14357672 241.83637114 419.24834743 183.07823258 419.1875 124.1875 C419.18689575 123.10429474 419.1862915 122.02108948 419.18566895 120.90505981 C419.16040105 104.18865316 418.81546723 87.63295438 417 71 C416.86045898 69.71931641 416.72091797 68.43863281 416.57714844 67.11914062 C414.93447383 52.33396018 412.96852811 37.61437559 410.21923828 22.98901367 C409.46279596 18.94132358 408.75992922 15.14122098 409 11 C419.93382818 18.98890025 429.91722819 27.5842515 439.44384766 37.18310547 C441.12314428 38.87313242 442.81288969 40.55217764 444.50390625 42.23046875 C451.12688438 48.84509332 457.19319861 55.64950488 463 63 C463.97614266 64.17418288 464.95602504 65.3452781 465.94140625 66.51171875 C478.62443489 81.76983693 489.69691692 98.59200355 498.9921875 116.11669922 C500.03321402 118.06206708 501.10740555 119.98623801 502.1875 121.91015625 C524.00154423 161.23052903 535.95155225 206.38985635 540 251 C540.11214844 252.11890625 540.22429687 253.2378125 540.33984375 254.390625 C547.5269519 339.06066622 521.10115655 426.73701833 468 493 C467.19949219 494.01320313 466.39898438 495.02640625 465.57421875 496.0703125 C460.45444077 502.45412092 454.98358619 508.48464452 449.41162109 514.47070312 C447.9957722 516.00458024 446.59907167 517.55388083 445.20703125 519.109375 C439.47613944 525.4963217 433.49242816 531.37996318 427 537 C425.90122805 537.98312949 424.80364493 538.96758869 423.70703125 539.953125 C408.32967159 553.66909049 391.64519095 565.3917159 374 576 C373.03392822 576.58442871 373.03392822 576.58442871 372.04833984 577.18066406 C329.13883293 602.90144059 281.47568582 617.31229052 232 623 C231.0831543 623.10602539 230.16630859 623.21205078 229.22167969 623.32128906 C149.15650234 631.2679929 66.79564762 608.94590583 1 563 C0.15695312 563.54914063 0.15695312 563.54914063 -0.703125 564.109375 C-43.95118175 591.96855266 -89.31154584 611.51127328 -140.25 620.25 C-141.12213135 620.40114258 -141.9942627 620.55228516 -142.89282227 620.70800781 C-160.18654715 623.49412296 -177.50695099 624.38108103 -195 624.3125 C-196.4623558 624.30976578 -196.4623558 624.30976578 -197.95425415 624.30697632 C-266.44530999 624.09266909 -334.88296966 603.75536517 -391 564 C-392.10939941 563.21520264 -392.10939941 563.21520264 -393.24121094 562.41455078 C-404.3507959 554.50359478 -414.89486935 546.15679864 -425 537 C-425.57476074 536.48163574 -426.14952148 535.96327148 -426.74169922 535.42919922 C-436.67974489 526.44299811 -446.32067899 517.22470736 -455 507 C-455.79792969 506.09121094 -456.59585937 505.18242188 -457.41796875 504.24609375 C-474.1696633 485.03390735 -488.08421046 463.48838163 -500 441 C-500.5273877 440.00516602 -500.5273877 440.00516602 -501.06542969 438.99023438 C-520.17178316 402.60588662 -531.52686721 363.64485237 -537 323 C-537.11859375 322.14712402 -537.2371875 321.29424805 -537.359375 320.41552734 C-548.85244718 234.02935537 -522.60837649 143.26062803 -470.22265625 74.32421875 C-462.25906328 63.98364629 -453.99027978 53.62622307 -444.5703125 44.5703125 C-442.79397233 42.79397233 -441.18696946 40.91585411 -439.5625 39 C-436.68374085 35.66904639 -433.62860323 32.7997708 -430.26953125 29.9609375 C-427.60201916 27.6561336 -425.06281289 25.23312706 -422.5 22.8125 C-415.47737025 16.25650931 -407.76043989 10.64306098 -400 5 C-399.01 5.495 -399.01 5.495 -398 6 C-398.18062988 6.72550049 -398.36125977 7.45100098 -398.54736328 8.19848633 C-405.93777534 38.15930085 -411.30992453 68.23835684 -414 99 C-414.08732895 99.96872543 -414.1746579 100.93745087 -414.26463318 101.93553162 C-414.95628552 110.13685779 -415.17458209 118.28349082 -415.203125 126.51171875 C-415.21018645 127.88025447 -415.21731915 129.24878982 -415.22451782 130.61732483 C-415.24407466 134.97405528 -415.24921033 139.33072978 -415.25 143.6875 C-415.25029457 144.42982376 -415.25058914 145.17214752 -415.25089264 145.93696594 C-415.25231401 168.0940472 -415.06040247 190.00710772 -412 212 C-411.85081116 213.09885529 -411.85081116 213.09885529 -411.6986084 214.21990967 C-404.13864292 269.83591006 -390.25906889 320.85893588 -350.45947266 362.47314453 C-349.47491573 363.50315775 -348.4955186 364.53812459 -347.52099609 365.57763672 C-318.28337525 396.68813007 -278.44417219 416.23723578 -237 425 C-236.24895996 425.16516113 -235.49791992 425.33032227 -234.72412109 425.50048828 C-196.44873438 433.55539556 -156.49219792 427.32734203 -120 415 C-120.61536273 411.52480572 -121.51369894 408.38722884 -122.78515625 405.09765625 C-137.91321683 365.10191995 -145.47122303 324.07871061 -145.3125 281.375 C-145.31034485 280.32418243 -145.3081897 279.27336487 -145.30596924 278.19070435 C-145.25264844 261.94157574 -144.71529129 246.05458324 -142 230 C-141.69400879 228.15680176 -141.69400879 228.15680176 -141.38183594 226.27636719 C-138.41404856 208.84547626 -134.4587294 191.83082805 -129 175 C-128.596604 173.7325293 -128.596604 173.7325293 -128.18505859 172.43945312 C-113.76448107 127.52839457 -89.23848952 86.19800703 -57.328125 51.546875 C-55.38199408 49.41788614 -53.49426568 47.25843347 -51.625 45.0625 C-48.56983796 41.55231383 -45.34323893 38.23511832 -42.0625 34.9375 C-41.58441895 34.45482666 -41.10633789 33.97215332 -40.61376953 33.47485352 C-34.02193711 26.91069926 -26.86015393 20.97599689 -19.6875 15.0625 C-18.95345947 14.45712402 -18.21941895 13.85174805 -17.46313477 13.22802734 C-11.79715324 8.58675121 -6.0149789 4.18320347 0 0 Z " fill="#3560EE" transform="translate(1808,432)"/>
<path d="M0 0 C1.06412109 0.01869141 2.12824219 0.03738281 3.22460938 0.05664062 C15.82681521 0.49491136 25.57060146 4.44733755 34.3671875 13.55078125 C43.24600119 24.29276568 47.04075058 40.04787056 51.63085938 52.97460938 C53.59874378 58.51422115 55.5824298 64.04816608 57.56640625 69.58203125 C57.98221954 70.74231842 58.39803284 71.90260559 58.82644653 73.09805298 C63.53059693 86.2001005 68.35849889 99.25607743 73.1875 112.3125 C79.83092764 130.28398689 86.40680514 148.27718767 92.875 166.3125 C101.04714865 189.09651024 109.36362028 211.8256384 117.74169922 234.53466797 C119.24300335 238.60474133 120.7399695 242.67638208 122.23391724 246.74916077 C123.40387128 249.93770403 124.57715108 253.12502048 125.75 256.3125 C126.34941406 257.95013306 126.34941406 257.95013306 126.9609375 259.62084961 C127.31542969 260.58128174 127.66992188 261.54171387 128.03515625 262.53125 C128.48387085 263.75231445 128.48387085 263.75231445 128.94165039 264.99804688 C129.54591575 266.79930623 129.54591575 266.79930623 130.6875 267.8125 C140.43096974 241.35295681 150.12934611 214.87773797 159.74835205 188.37268066 C166.64825334 169.36522857 173.62750595 150.38791732 180.63513184 131.41995239 C186.53302153 115.44975832 192.36104998 99.45642702 198.10870361 83.43154907 C209.37083753 52.03652135 209.37083753 52.03652135 213.68869019 40.34597778 C214.17557986 39.02377379 214.65910538 37.70032442 215.13870239 36.37545776 C220.72704156 20.95785347 226.86396353 10.20403099 241.91796875 2.9765625 C245.69767511 1.387913 248.86960534 0.68710063 252.96490479 0.69224548 C254.23527588 0.69018349 254.23527588 0.69018349 255.53131104 0.68807983 C256.45200378 0.69167511 257.37269653 0.69527039 258.32128906 0.69897461 C259.78520081 0.69875557 259.78520081 0.69875557 261.27868652 0.6985321 C264.50352198 0.6992286 267.72829963 0.70700874 270.953125 0.71484375 C273.18943246 0.71670886 275.42574033 0.71813233 277.66204834 0.71913147 C283.54749683 0.72294929 289.43292064 0.73277334 295.31835938 0.74383545 C301.32421535 0.75406534 307.33007532 0.75863248 313.3359375 0.76367188 C325.11980251 0.77439624 336.9036492 0.79146388 348.6875 0.8125 C343.99151129 14.48689109 339.2811721 28.14925652 334.22680664 41.69580078 C332.75286143 45.64850879 331.29031599 49.60543156 329.828125 53.5625 C329.50763184 54.42979736 329.18713867 55.29709473 328.85693359 56.19067383 C324.47310425 68.07673755 320.17955843 79.99568882 315.87471008 91.91052246 C309.59631417 109.28711268 303.2981212 126.65529598 296.88427734 143.98242188 C291.2423961 159.23148485 285.7140878 174.52136736 280.1875 189.8125 C274.10993852 206.62758364 268.01283582 223.43442731 261.80984497 240.20370483 C256.09522505 255.65608975 250.47388108 271.14191062 244.85342407 286.62875366 C237.78462121 306.10091958 230.63779319 325.54348125 223.45935059 344.97546387 C218.46058174 358.51071065 213.49879393 372.05613423 208.66595459 385.65151978 C202.52945821 402.90204024 196.2037981 420.08281538 189.81680298 437.24191284 C188.73844493 440.13980484 187.66469943 443.03933828 186.59506226 445.94046021 C185.324914 449.38439234 184.04468544 452.8244178 182.75713158 456.26187897 C182.0545383 458.14462535 181.36161085 460.03097002 180.66902161 461.91741943 C174.60296774 478.02593564 166.45139024 489.32159529 150.9609375 497.4375 C143.04672864 500.76184549 135.87403742 501.17731541 127.375 501.1875 C126.31087891 501.21199219 125.24675781 501.23648437 124.15039062 501.26171875 C113.0790847 501.30224824 103.93306274 498.27600937 95.6875 490.8125 C95.03136719 490.25691406 94.37523437 489.70132812 93.69921875 489.12890625 C88.91815373 484.51494642 86.48218628 479.48886465 84.1328125 473.40625 C83.79516876 472.54667694 83.45752502 471.68710388 83.10964966 470.80148315 C78.25820607 458.31175842 73.81151193 445.66811668 69.31494141 433.04746628 C67.26109219 427.28814396 65.1968452 421.53253157 63.1339798 415.77643394 C62.62358208 414.35218157 62.11330237 412.92788691 61.60314178 411.50354958 C57.68521058 400.56560755 53.72472556 389.64452536 49.6875 378.75 C48.60646411 375.83084264 47.52569869 372.91158538 46.4453125 369.9921875 C46.02224823 368.8490937 46.02224823 368.8490937 45.59063721 367.6829071 C41.12714824 355.60817921 36.72213292 343.51191212 32.30853653 331.41888046 C31.56625148 329.38527774 30.82373585 327.35175935 30.08114624 325.31826782 C24.90770179 311.1509466 19.74338119 296.98041334 14.60892487 282.79891014 C13.90934409 280.86698798 13.20935908 278.93521282 12.50921631 277.00349426 C12.28263588 276.37832885 12.05605545 275.75316343 11.82260895 275.10905361 C11.59835991 274.4903291 11.37411087 273.8716046 11.14306641 273.23413086 C9.41904111 268.47713893 7.69927816 263.71863574 5.98193359 258.95922852 C5.20295721 256.80869937 4.42383158 254.65822428 3.64453125 252.5078125 C3.30074936 251.55129288 2.95696747 250.59477325 2.60276794 249.60926819 C0.52731036 243.89575526 -1.76281859 238.33100301 -4.3125 232.8125 C-4.54370544 233.45457901 -4.77491089 234.09665802 -5.01312256 234.75819397 C-15.51296034 263.91493621 -26.02424051 293.06726573 -36.625 322.1875 C-42.68241414 338.82767131 -48.72988902 355.47129345 -54.75 372.125 C-55.43074065 374.00773285 -56.1114861 375.89046397 -56.79223633 377.77319336 C-59.84460702 386.2158815 -62.89590715 394.65895577 -65.94580078 403.10253906 C-68.04210989 408.90609439 -70.13956559 414.70923431 -72.23801708 420.51201534 C-73.37022673 423.64303298 -74.50176906 426.77428759 -75.6322937 429.90591431 C-78.11224178 436.77528523 -80.60341221 443.64039054 -83.10839844 450.50067139 C-84.32508987 453.84712788 -85.52597732 457.19900604 -86.7265625 460.55126953 C-87.50455958 462.69196766 -88.28317834 464.83243998 -89.0625 466.97265625 C-89.40297363 467.93586288 -89.74344727 468.89906952 -90.09423828 469.89146423 C-95.06575504 483.41375369 -102.55235032 492.41160657 -115.54296875 498.6484375 C-126.38520244 503.20553995 -143.13268794 502.70822563 -154.25 499.1875 C-156.8828125 498.078125 -156.8828125 498.078125 -159.3125 496.8125 C-160.19679688 496.35359375 -161.08109375 495.8946875 -161.9921875 495.421875 C-173.93889037 488.68634519 -181.46646907 480.25126833 -186.35546875 467.33203125 C-186.64943039 466.56540665 -186.94339203 465.79878204 -187.2462616 465.00892639 C-191.54246708 453.70340633 -195.57237839 442.29793055 -199.63946533 430.9085083 C-202.19391244 423.75545934 -204.75857842 416.60607169 -207.32421875 409.45703125 C-207.7099707 408.3819418 -207.7099707 408.3819418 -208.10351562 407.28513336 C-212.8192742 394.14623697 -217.60605203 381.03431877 -222.4375 367.9375 C-228.96034595 350.25221398 -235.40713068 332.5406768 -241.8125 314.8125 C-248.26310981 296.96074426 -254.75077944 279.12372096 -261.3125 261.3125 C-268.32968418 242.26496257 -275.25719664 223.18600946 -282.15576172 204.09521484 C-288.51710571 186.49433776 -294.93277533 168.9145883 -301.40270996 151.35336304 C-307.6840526 134.29936687 -313.88553755 117.21701422 -320.0625 100.125 C-325.97886864 83.75521443 -331.90941378 67.391518 -337.9375 51.0625 C-338.2143866 50.31194336 -338.49127319 49.56138672 -338.77655029 48.78808594 C-341.43945881 41.5705507 -344.10962981 34.35575993 -346.790802 27.14498901 C-347.84509435 24.3068543 -348.89567742 21.46735579 -349.94549561 18.62756348 C-350.43360383 17.31022936 -350.9235042 15.99355766 -351.41534424 14.6776123 C-352.08071761 12.89736887 -352.73975515 11.11476117 -353.3984375 9.33203125 C-353.7701709 8.33276611 -354.1419043 7.33350098 -354.52490234 6.30395508 C-355.3125 3.8125 -355.3125 3.8125 -355.3125 0.8125 C-342.594544 0.71958862 -329.8766695 0.64862775 -317.1584425 0.60525131 C-311.25207164 0.58442686 -305.34593396 0.55620313 -299.43969727 0.51074219 C-293.73383116 0.46710118 -288.02818855 0.44332426 -282.32216835 0.43299103 C-280.15138547 0.42563238 -277.98061404 0.41126302 -275.80992699 0.38957977 C-261.09651891 0.24852616 -248.7357291 0.39789277 -237.3125 10.8125 C-236.63316406 11.42609375 -235.95382812 12.0396875 -235.25390625 12.671875 C-231.27714555 16.67118822 -228.76130693 20.59513272 -226.72265625 25.84765625 C-226.47611801 26.4809082 -226.22957977 27.11416016 -225.97557068 27.76660156 C-221.69536701 38.87416651 -217.68110562 50.08503575 -213.61642456 61.27279663 C-212.3502599 64.75609143 -211.08127762 68.23835943 -209.8125 71.72070312 C-207.96098832 76.80305666 -206.11020693 81.88567489 -204.26040459 86.96865082 C-201.01085399 95.89767535 -197.75547482 104.82455953 -194.49609375 113.75 C-194.14306372 114.71673928 -194.14306372 114.71673928 -193.78290176 115.70300865 C-192.59900632 118.94489001 -191.41500341 122.18673211 -190.23095703 125.42855835 C-188.80594872 129.33024957 -187.38142452 133.23211742 -185.95703125 137.1340332 C-185.72075579 137.78127381 -185.48448032 138.42851442 -185.241045 139.09536839 C-184.76309348 140.40464997 -184.28514307 141.71393195 -183.80719376 143.02321434 C-179.89509122 153.73980062 -175.9819838 164.45601961 -172.06820869 175.17199516 C-169.83696117 181.28126512 -167.60591456 187.39060845 -165.375 193.5 C-165.13520794 194.15667286 -164.89541588 194.81334572 -164.64835739 195.48991776 C-155.84827279 219.58964477 -147.07020307 243.69733841 -138.3125 267.8125 C-136.53116865 265.14050297 -135.53882144 263.01313735 -134.44335938 260.03295898 C-134.0804631 259.05141342 -133.71756683 258.06986786 -133.34367371 257.05857849 C-132.95182388 255.98608353 -132.55997406 254.91358856 -132.15625 253.80859375 C-131.742043 252.6840126 -131.327836 251.55943146 -130.90107727 250.40077209 C-129.77031732 247.32735562 -128.64325229 244.25261657 -127.51807022 241.17715454 C-126.57167202 238.5922161 -125.6223155 236.00836799 -124.67308903 233.42446709 C-117.6723497 214.36394318 -110.77197215 195.26794415 -103.91625977 176.15478516 C-98.75999102 161.78700849 -93.52678591 147.44892482 -88.25 133.125 C-82.22468293 116.76654343 -76.2388349 100.3945991 -70.3125 84 C-69.95626556 83.01458221 -69.60003113 82.02916443 -69.23300171 81.0138855 C-65.87349195 71.71687096 -62.5215542 62.41723506 -59.203125 53.10546875 C-58.97105347 52.4543663 -58.73898193 51.80326385 -58.49987793 51.13243103 C-57.47724559 48.26150852 -56.457219 45.3897006 -55.44140625 42.51635742 C-54.41044368 39.61054725 -53.36632487 36.71009434 -52.3125 33.8125 C-51.90217529 32.68021973 -51.49185059 31.54793945 -51.0690918 30.38134766 C-50.42967651 28.66117432 -50.42967651 28.66117432 -49.77734375 26.90625 C-49.20294556 25.35067383 -49.20294556 25.35067383 -48.61694336 23.76367188 C-44.39174448 14.20458446 -36.41873521 7.00618116 -26.95703125 2.75390625 C-18.11101974 -0.42822182 -9.27893347 -0.32801502 0 0 Z " fill="#3661EE" transform="translate(543.3125,1284.1875)"/>
<path d="M0 0 C0.57782227 0.55059082 1.15564453 1.10118164 1.75097656 1.66845703 C9.78207325 9.35085236 17.03874454 17.30637604 23.67333984 26.22460938 C25.0100347 28.01342885 26.37192442 29.78064432 27.73828125 31.546875 C66.63273261 82.4130839 82.00672398 148.94620189 74.4765625 212.02514648 C67.2875061 265.72629421 43.80584398 315.16919235 6 354 C5.43780762 354.58265625 4.87561523 355.1653125 4.29638672 355.765625 C-3.0711994 363.37927182 -10.56130586 370.56235122 -19 377 C-19.54172852 377.41813965 -20.08345703 377.8362793 -20.64160156 378.26708984 C-30.63471801 385.94828226 -41.09292525 392.69229412 -52 399 C-52.68787598 399.39960937 -53.37575195 399.79921875 -54.08447266 400.2109375 C-109.8681751 432.21775979 -178.59899012 438.40792161 -240.29418945 422.48022461 C-277.60020484 412.34967186 -312.17246886 393.73371287 -341 368 C-341.79567383 367.29689697 -341.79567383 367.29689697 -342.60742188 366.57958984 C-389.72373514 324.794264 -420.03006354 264.92159257 -425 202 C-425.14416003 198.73515456 -425.18596056 195.47479468 -425.203125 192.20703125 C-425.21018463 191.30658081 -425.21724426 190.40613037 -425.22451782 189.47839355 C-425.4538424 151.64431894 -425.4538424 151.64431894 -422 135 C-421.69400879 133.50944092 -421.69400879 133.50944092 -421.38183594 131.98876953 C-416.90432476 110.81672432 -410.45953203 90.47598538 -401 71 C-400.59797363 70.17000488 -400.19594727 69.34000977 -399.78173828 68.48486328 C-371.12668903 10.0469581 -319.22757985 -35.69262092 -257.765625 -57.10546875 C-170.91485609 -86.11899898 -72.31815599 -67.83245787 0 0 Z M-273.46289062 94.26757812 C-297.56618193 121.4335494 -306.61617516 156.3572554 -305 192 C-302.16002641 225.75565923 -285.36718084 257.61753549 -259.8125 279.75 C-231.24629752 303.44417531 -196.0580194 312.5426163 -159.44921875 309.80957031 C-134.40296702 307.23127969 -110.03311898 296.3176609 -91 280 C-90.48888672 279.56574707 -89.97777344 279.13149414 -89.45117188 278.68408203 C-63.26245509 256.25651074 -47.48047453 224.77986056 -44.39868164 190.48120117 C-41.94395339 156.20493469 -52.62763047 122.18862662 -75 96 C-75.81339844 95.03578125 -76.62679687 94.0715625 -77.46484375 93.078125 C-96.477062 71.33271266 -121.29471055 58.70213135 -149 52 C-150.1034375 51.731875 -151.206875 51.46375 -152.34375 51.1875 C-197.59376904 42.4294318 -242.84648018 61.41367118 -273.46289062 94.26757812 Z " fill="#3660EE" transform="translate(2463,1355)"/>
<path d="M0 0 C210.53930461 0 210.53930461 0 280 61 C280.86238281 61.75023437 281.72476563 62.50046875 282.61328125 63.2734375 C292.96906161 72.42352094 302.53150299 82.06329783 311 93 C311.44811035 93.56638184 311.8962207 94.13276367 312.35791016 94.71630859 C347.68746403 139.44316513 366.1996217 195.30596257 366.25 252.125 C366.25067474 252.81842499 366.25134949 253.51184998 366.25204468 254.22628784 C366.15730418 316.22110647 342.6891617 373.67164744 302 420 C301.13246094 420.99128906 300.26492188 421.98257812 299.37109375 423.00390625 C295.14939541 427.74123187 290.88374941 432.20765582 286.01953125 436.28515625 C284.63064929 437.46449703 283.27491735 438.68364935 281.94921875 439.93359375 C268.24551496 452.83258955 252.52933219 463.1160272 236 472 C235.31873047 472.36818848 234.63746094 472.73637695 233.93554688 473.11572266 C212.88268029 484.3733023 190.0128099 492.5483165 166.625 497.3125 C165.90248047 497.45977539 165.17996094 497.60705078 164.43554688 497.75878906 C110.56448315 507.92808359 54.82249591 501 0 501 C0 335.67 0 170.34 0 0 Z M118 123 C118 208.8 118 294.6 118 383 C124.91560064 383 130.95459167 382.99468508 137.625 381.8125 C138.3893335 381.6786792 139.15366699 381.5448584 139.94116211 381.40698242 C173.18835253 375.2728775 203.75595681 357.01004313 223.32373047 329.11279297 C243.99579075 298.60991828 252.44688417 262.80465203 245.50683594 226.4140625 C240.93960734 205.43259015 232.29610131 185.19673906 218 169 C217.27941406 168.15953125 216.55882813 167.3190625 215.81640625 166.453125 C197.23547953 145.19937866 172.43075951 131.36264497 144.875 125.625 C143.76850098 125.39139771 143.76850098 125.39139771 142.63964844 125.15307617 C134.39110607 123.60492367 126.54420292 123.50260017 118 123 Z " fill="#3660EE" transform="translate(2616,1284)"/>
<path d="M0 0 C64.9378125 -0.1546875 64.9378125 -0.1546875 131.1875 -0.3125 C144.8518042 -0.35802002 158.5161084 -0.40354004 172.59448242 -0.45043945 C189.2935791 -0.47302246 189.2935791 -0.47302246 197.11372375 -0.47721863 C202.56993022 -0.4818727 208.02588743 -0.5001766 213.48200989 -0.52787781 C219.78184469 -0.55981506 226.08143355 -0.57415413 232.38134982 -0.56722475 C235.6007962 -0.5642261 238.81958591 -0.57164702 242.03895605 -0.59607565 C258.48465098 -0.7150361 271.74818694 -0.52470483 284.78125 10.7734375 C311.57519354 37.66172592 299 89.42667181 299 119 C239.6 119 180.2 119 119 119 C119 142.76 119 166.52 119 191 C178.4 191 237.8 191 299 191 C299 230.27 299 269.54 299 310 C239.6 310 180.2 310 119 310 C119 333.43 119 356.86 119 381 C178.4 381 237.8 381 299 381 C299 420.27 299 459.54 299 500 C200.33 500 101.66 500 0 500 C0 335 0 170 0 0 Z " fill="#3560EE" transform="translate(3060,1285)"/>
<path d="M0 0 C64.9378125 -0.1546875 64.9378125 -0.1546875 131.1875 -0.3125 C144.8518042 -0.35802002 158.5161084 -0.40354004 172.59448242 -0.45043945 C189.2935791 -0.47302246 189.2935791 -0.47302246 197.11372375 -0.47721863 C202.56993022 -0.4818727 208.02588743 -0.5001766 213.48200989 -0.52787781 C219.78184469 -0.55981506 226.08143355 -0.57415413 232.38134982 -0.56722475 C235.6007962 -0.5642261 238.81958591 -0.57164702 242.03895605 -0.59607565 C258.48465098 -0.7150361 271.74818694 -0.52470483 284.78125 10.7734375 C311.57519354 37.66172592 299 89.42667181 299 119 C239.6 119 180.2 119 119 119 C119 142.76 119 166.52 119 191 C178.4 191 237.8 191 299 191 C299 230.27 299 269.54 299 310 C239.6 310 180.2 310 119 310 C119 333.43 119 356.86 119 381 C178.4 381 237.8 381 299 381 C299 420.27 299 459.54 299 500 C200.33 500 101.66 500 0 500 C0 335 0 170 0 0 Z " fill="#3560EE" transform="translate(954,1285)"/>
<path d="M0 0 C1.01940674 0.00182281 2.03881348 0.00364563 3.08911133 0.00552368 C17.75503087 0.0497311 32.01771615 0.40603036 46.4375 3.3125 C47.29923828 3.47347168 48.16097656 3.63444336 49.04882812 3.80029297 C98.43306414 13.147382 140.70257287 37.43246538 175.4375 73.3125 C169.70907017 80.27905039 163.35999784 86.62910184 157.0234375 93.03515625 C156.12742262 93.94102887 156.12742262 93.94102887 155.21330643 94.86520195 C152.05175797 98.05917831 148.88625043 101.24917997 145.71826172 104.43676758 C143.11685121 107.05598483 140.52422603 109.68344674 137.93896484 112.31860352 C134.79431974 115.52382919 131.6348374 118.71371713 128.46458817 121.89361382 C127.26909504 123.09759303 126.07868693 124.30664634 124.89384079 125.52110481 C114.62521035 136.03247179 104.6797175 143.46723188 89.4375 143.6875 C81.47578155 143.73750973 75.51492435 142.07951618 68.4375 138.3125 C34.60425155 120.58757291 -4.52366011 113.27331716 -41.53076172 124.62011719 C-74.26606707 135.21250725 -99.58425102 157.34936109 -115.43359375 187.86328125 C-131.5931207 220.15655553 -131.99238265 257.9876556 -120.69433594 291.91992188 C-108.65824487 325.84561654 -86.25069745 354.43051121 -53.5625 370.3125 C-20.21738137 386.01989579 13.95742523 384.28101374 48.0625 372.0625 C55.30593981 369.39161732 62.1004476 366.10549361 68.83251953 362.33300781 C78.86180297 356.71501674 89.46597641 355.6382898 100.7109375 358 C112.90043012 362.09730844 121.30838036 371.91372847 130.125 380.8046875 C131.43592138 382.11934486 132.74728934 383.43355703 134.05908203 384.74734497 C137.48950587 388.18535919 140.9138775 391.62933933 144.3369751 395.074646 C147.83946686 398.59769575 151.3477162 402.11500204 154.85546875 405.6328125 C161.72175633 412.52046881 168.58165657 419.4144488 175.4375 426.3125 C174.48558028 427.42788211 173.53297263 428.54267712 172.58007812 429.65722656 C172.04966919 430.27809143 171.51926025 430.8989563 170.97277832 431.53863525 C132.7231723 475.73233406 70.92140766 496.27910929 14.32342529 500.42388916 C-50.20809548 504.87197498 -115.21741009 486.2484107 -164.69921875 443.66796875 C-167.02002063 441.5817349 -169.29425847 439.45544819 -171.5625 437.3125 C-172.89111796 436.16120242 -174.22434718 435.01520122 -175.5625 433.875 C-183.55153654 426.88258371 -190.73632117 419.30801444 -197.27734375 410.94824219 C-198.18735298 409.78998576 -199.10478129 408.63754056 -200.02734375 407.48925781 C-212.68893514 391.72541865 -223.11000273 374.6796668 -231.5625 356.3125 C-231.8920166 355.60367676 -232.2215332 354.89485352 -232.56103516 354.16455078 C-244.22499341 328.76713236 -251.62307346 300.44549355 -251.765625 272.3984375 C-251.77263931 271.47428543 -251.77965363 270.55013336 -251.78688049 269.59797668 C-251.80430989 266.62776779 -251.8107339 263.65775817 -251.8125 260.6875 C-251.81317474 259.67362213 -251.81384949 258.65974426 -251.81454468 257.61514282 C-251.79900849 242.94825976 -251.32493446 228.75033994 -248.5625 214.3125 C-248.25297159 212.46760449 -247.94441225 210.62254618 -247.63671875 208.77734375 C-240.10802342 166.33701262 -221.19880114 126.98636331 -194.5625 93.3125 C-194.14242676 92.7752832 -193.72235352 92.23806641 -193.28955078 91.68457031 C-180.75871715 75.78716941 -165.96947751 61.16711212 -149.5625 49.3125 C-148.41475242 48.45915608 -147.26762638 47.60497561 -146.12109375 46.75 C-133.094304 37.13672514 -119.2333174 29.13968177 -104.5625 22.3125 C-103.85706055 21.9839502 -103.15162109 21.65540039 -102.42480469 21.31689453 C-82.14943942 12.02288482 -60.62808048 5.56376017 -38.5625 2.3125 C-37.44657471 2.13662354 -36.33064941 1.96074707 -35.1809082 1.77954102 C-23.45498386 0.09649782 -11.83168017 -0.04379171 0 0 Z " fill="#3661EE" transform="translate(1800.5625,1284.6875)"/>
<path d="M0 0 C2.06495278 3.09742916 2.34311889 4.47766624 2.8125 8.0625 C4.7955868 19.552293 10.86840009 28.35110435 20.1015625 35.3515625 C48.13501017 54.78512399 84.45603598 57.12333706 117.48217773 57.17358398 C119.2991196 57.1799055 121.11605996 57.18667301 122.93299866 57.19384766 C126.82001359 57.20841171 130.70702299 57.22017891 134.59405327 57.22979546 C140.7638252 57.24539838 146.93354815 57.26934837 153.10328674 57.29469299 C170.63938276 57.36549226 188.17550645 57.42546968 205.71166992 57.47680664 C215.41686491 57.50529194 225.12201065 57.5407672 234.82715374 57.58346039 C239.94453364 57.60563146 245.06186886 57.62423713 250.17928886 57.63390923 C339.41746725 57.80946903 339.41746725 57.80946903 371.8125 88.4375 C403.22891361 121.93294098 408.34120889 174.18202187 408.0625 217.875 C408.05746511 219.25650876 408.05290579 220.63801933 408.04882812 222.01953125 C408.03719571 225.34640246 408.0208528 228.67317602 408 232 C407.67 232 407.34 232 407 232 C406.77957031 230.56720703 406.77957031 230.56720703 406.5546875 229.10546875 C403.6969782 212.63258121 396.23714811 200.96587169 382.625 190.9375 C344.54781735 164.2109988 295.93748464 161.54823637 251.14139271 161.52682066 C246.24849492 161.52106447 241.35567904 161.49772394 236.46282959 161.47622681 C227.20384721 161.43796559 217.94488895 161.41359147 208.685848 161.39510214 C192.15195213 161.36159521 175.61813205 161.30314287 159.08432174 161.24111044 C153.31068778 161.21998223 147.53707673 161.20464737 141.76341414 161.19413388 C125.51253864 161.16283267 109.26919143 161.11826516 93.02636719 160.56103516 C91.38175695 160.50574174 91.38175695 160.50574174 89.70392227 160.44933128 C65.37659055 159.48660933 43.69747606 153.40639915 26 136 C25.29875 135.31164062 24.5975 134.62328125 23.875 133.9140625 C11.61344616 121.02985163 5.62317886 103.85440449 1 87 C0.5875 88.1859375 0.175 89.371875 -0.25 90.59375 C-9.01842473 115.36725298 -20.2627288 138.15673365 -45.03125 150.24609375 C-64.84977441 159.32466879 -85.98038545 160.17185745 -107.40698242 160.06591797 C-109.24008557 160.06071455 -111.07319018 160.0560085 -112.90629578 160.05175781 C-116.83482901 160.04186837 -120.76333751 160.02903757 -124.69185448 160.01403427 C-130.92918839 159.99078736 -137.16651927 159.97761116 -143.40388489 159.96633911 C-161.13477728 159.93306392 -178.86562204 159.89161362 -196.59643555 159.82861328 C-206.40414058 159.79384955 -216.21180995 159.77019708 -226.01957017 159.75840485 C-231.19188571 159.75169962 -236.36404958 159.73951202 -241.53630638 159.71337509 C-288.47829469 159.48254019 -344.2211327 161.57779786 -380.6875 195.5 C-381.450625 196.325 -382.21375 197.15 -383 198 C-383.48082031 198.49886719 -383.96164062 198.99773437 -384.45703125 199.51171875 C-392.67853148 208.44089241 -395.09284303 218.37099407 -397 230 C-397.33 230 -397.66 230 -398 230 C-398.8000856 182.5487695 -396.21342437 123.05706337 -361.45898438 86.46533203 C-336.85370204 61.7529986 -303.09522264 56.13977605 -269.49289525 55.90412354 C-265.55837266 55.89674321 -261.62415909 55.9137796 -257.68969727 55.93408203 C-255.91511672 55.93929102 -254.14053464 55.94399591 -252.36595154 55.94824219 C-248.57608685 55.95809798 -244.78624838 55.97091469 -240.99640083 55.98596573 C-234.97717908 56.00929502 -228.95796037 56.02241193 -222.93870544 56.03366089 C-205.83254679 56.06687171 -188.72643822 56.10843446 -171.62036133 56.17138672 C-162.14809789 56.20615999 -152.67587136 56.2298047 -143.20355076 56.24159515 C-138.21238004 56.2482945 -133.22136674 56.26045851 -128.23025703 56.28662491 C-65.91644243 57.09261863 -65.91644243 57.09261863 -12.15625 29.3203125 C-4.08699586 20.63709337 -0.92559804 11.66253528 0 0 Z " fill="#ADE11A" transform="translate(1808,199)"/>
<path d="M0 0 C0.66 0.33 1.32 0.66 2 1 C-7.9 10.9 -17.8 20.8 -28 31 C-28.66 30.67 -29.32 30.34 -30 30 C-29.35933594 29.3709375 -28.71867187 28.741875 -28.05859375 28.09375 C-24.02827049 24.10547184 -20.04078131 20.14169417 -16.375 15.8125 C-13.46036983 12.40293264 -10.28416432 9.50782226 -6.8671875 6.609375 C-4.44537851 4.52195805 -2.22485957 2.29438644 0 0 Z " fill="#6384F1" transform="translate(1385,455)"/>
<path d="M0 0 C0.66 0.33 1.32 0.66 2 1 C-1.96 4.96 -5.92 8.92 -10 13 C-10 8.41771462 -7.08388033 6.1816619 -4 3 C-1.625 1.0625 -1.625 1.0625 0 0 Z " fill="#6E8CF2" transform="translate(509,1291)"/>
</svg>
